<svg width="32" height="32" viewBox="0 0 32 32" fill="none" xmlns="http://www.w3.org/2000/svg">
<g clip-path="url(#clip0_32_249)">
<path d="M32 16.1784C32 7.79761 24.836 1.00269 16 1.00269C7.164 1.00269 0 7.79761 0 16.1784C0 23.7536 5.85067 30.0313 13.5 31.1695V20.5654H9.43733V16.1771H13.5V12.836C13.5 9.03316 15.8893 6.93132 19.544 6.93132C21.2933 6.93132 23.1253 7.22852 23.1253 7.22852V10.963H21.1067C19.1187 10.963 18.4987 12.1328 18.4987 13.333V16.1784H22.936L22.2267 20.5667H18.4987V31.1707C26.1493 30.0313 32 23.7523 32 16.1784Z" fill="white"/>
</g>
<defs>
<clipPath id="clip0_32_249">
<rect width="32" height="30.3514" fill="white" transform="translate(0 0.910156)"/>
</clipPath>
</defs>
</svg>
