<svg width="32" height="32" viewBox="0 0 32 32" fill="none" xmlns="http://www.w3.org/2000/svg">
<path d="M16 0.910156C11.6533 0.910156 11.1107 0.929126 9.404 1.00121C7.7 1.07709 6.54 1.33128 5.52 1.70688C4.468 2.09386 3.57467 2.61363 2.68533 3.45714C1.796 4.30066 1.24667 5.14671 0.84 6.14577C0.444 7.11322 0.174667 8.21346 0.096 9.82967C0.016 11.4484 0 11.9631 0 16.0859C0 20.2086 0.02 20.7233 0.096 22.342C0.176 23.957 0.444 25.0585 0.84 26.0259C1.248 27.0225 1.796 27.871 2.68533 28.7146C3.57467 29.5568 4.46667 30.0791 5.52 30.4648C6.54133 30.8392 7.70133 31.0959 9.404 31.1705C11.1107 31.2464 11.6533 31.2616 16 31.2616C20.3467 31.2616 20.8893 31.2426 22.596 31.1705C24.2987 31.0946 25.46 30.8392 26.48 30.4648C27.5307 30.0778 28.4253 29.5568 29.3147 28.7146C30.2027 27.871 30.7533 27.0263 31.16 26.0259C31.5547 25.0585 31.8253 23.957 31.904 22.342C31.984 20.7233 32 20.2086 32 16.0859C32 11.9631 31.98 11.4484 31.904 9.82967C31.824 8.21472 31.5547 7.11196 31.16 6.14577C30.752 5.14797 30.2027 4.30066 29.3147 3.45714C28.4253 2.61363 27.5347 2.0926 26.48 1.70688C25.46 1.33128 24.2987 1.07582 22.596 1.00121C20.8893 0.925332 20.3467 0.910156 16 0.910156ZM16 3.64178C20.2707 3.64178 20.78 3.66201 22.4667 3.73157C24.0267 3.80113 24.8733 4.04647 25.436 4.2564C26.1853 4.53082 26.716 4.85963 27.2787 5.38952C27.8373 5.92067 28.184 6.42526 28.4733 7.13599C28.692 7.66967 28.9533 8.47271 29.024 9.95234C29.1 11.5533 29.1173 12.0339 29.1173 16.0859C29.1173 20.1378 29.0973 20.6196 29.0187 22.2194C28.9373 23.699 28.6773 24.502 28.4573 25.0357C28.1587 25.7464 27.8187 26.2498 27.2587 26.7835C26.7 27.3133 26.16 27.6421 25.4187 27.9165C24.8587 28.124 23.9987 28.3718 22.4387 28.4389C20.74 28.511 20.24 28.5274 15.96 28.5274C11.6787 28.5274 11.1787 28.5084 9.48133 28.4338C7.92 28.3566 7.06 28.11 6.5 27.9014C5.74133 27.6182 5.22 27.2957 4.66133 26.7645C4.1 26.2346 3.74133 25.7224 3.46133 25.0193C3.24133 24.4882 2.98267 23.6725 2.90133 22.1928C2.84133 20.5994 2.82 20.1074 2.82 16.0669C2.82 12.0251 2.84133 11.5319 2.90133 9.91947C2.98267 8.43983 3.24133 7.6254 3.46133 7.09425C3.74133 6.37341 4.1 5.8802 4.66133 5.34779C5.22 4.8179 5.74133 4.47645 6.5 4.21213C7.06 4.0022 7.90133 3.7556 9.46133 3.67972C11.1613 3.62281 11.6613 3.60384 15.94 3.60384L16 3.64178ZM16 8.29313C11.46 8.29313 7.784 11.7835 7.784 16.0859C7.784 20.392 11.464 23.8786 16 23.8786C20.54 23.8786 24.216 20.3882 24.216 16.0859C24.216 11.7797 20.536 8.29313 16 8.29313ZM16 21.1444C13.0533 21.1444 10.6667 18.8807 10.6667 16.0859C10.6667 13.291 13.0533 11.0273 16 11.0273C18.9467 11.0273 21.3333 13.291 21.3333 16.0859C21.3333 18.8807 18.9467 21.1444 16 21.1444ZM26.4613 7.98583C26.4613 8.99122 25.6 9.80691 24.5413 9.80691C23.4813 9.80691 22.6213 8.98995 22.6213 7.98583C22.6213 6.9817 23.4827 6.166 24.5413 6.166C25.5987 6.16474 26.4613 6.9817 26.4613 7.98583Z" fill="white"/>
</svg>
