<svg width="32" height="32" viewBox="0 0 32 32" fill="none" xmlns="http://www.w3.org/2000/svg">
<path d="M31.3307 8.73324C31.1499 8.08735 30.7934 7.49785 30.2968 7.02377C29.8003 6.54969 29.1811 6.20767 28.5013 6.03196C26.0067 5.39331 16 5.39331 16 5.39331C16 5.39331 5.99333 5.39331 3.49733 6.03196C2.81788 6.20798 2.19906 6.55013 1.70277 7.02417C1.20648 7.49822 0.850122 8.08756 0.669333 8.73324C0 11.1158 0 16.0859 0 16.0859C0 16.0859 0 21.0559 0.669333 23.4385C0.850115 24.0844 1.20663 24.6739 1.70319 25.1479C2.19974 25.622 2.8189 25.964 3.49867 26.1398C5.99333 26.7784 16 26.7784 16 26.7784C16 26.7784 26.0067 26.7784 28.5027 26.1398C29.1825 25.9642 29.8017 25.6222 30.2983 25.1481C30.7949 24.674 31.1513 24.0844 31.332 23.4385C32 21.0559 32 16.0859 32 16.0859C32 16.0859 32 11.1158 31.3307 8.73324ZM12.7267 20.5981V11.5737L21.0907 16.0859L12.7267 20.5981Z" fill="white"/>
</svg>
